PathFileType	3	(X/Y/Z)	D:\Vicon Database\Healthy Subjects\S0040\Jan. 30, 2020\Force Plate Walk 1.trc
DataRate	CameraRate	NumFrames	NumMarkers	Units	OrigDataRate	OrigDataStartFrame	OrigNumFrames
100.0	100.0	6	53	mm	100.0	383	322	
Frame#	Time	right_foot_cluster2			right_foot_cluster3			sternum_cluster1			sternum_cluster2			sternum_cluster3			left_asis			right_asis			left_psis			right_psis			sacrum_cluster1			sacrum_cluster2			sacrum_cluster3			left_lat_femoral_epicondyle			left_anterior_thigh15			left_anterior_thigh25			left_anterior_thigh50			left_lateral_thigh25			left_lateral_thigh50			left_thigh_cluster1			left_thigh_cluster2			left_thigh_cluster3			left_fibular_head			left_tibial_tuberosity			left_anterior_shank30			left_lateral_malleolus			left_shank_cluster1			left_shank_cluster2			left_shank_cluster3			left_heel			left_metatarsal2			left_foot_cluster1			left_foot_cluster2			left_foot_cluster3			right_lat_femoral_epicondyle			right_anterior_thigh15			right_anterior_thigh25			right_anterior_thigh50			right_lateral_thigh25			right_lateral_thigh50			right_thigh_cluster1			right_thigh_cluster2			right_thigh_cluster3			right_fibular_head			right_tibial_tuberosity			right_lateral_distal_shank			right_anterior_shank30			right_lateral_malleolus			right_shank_cluster1			right_shank_cluster2			right_shank_cluster3			right_heel			right_metatarsal2			right_foot_cluster1			
		X1	Y1	Z1	X2	Y2	Z2	X3	Y3	Z3	X4	Y4	Z4	X5	Y5	Z5	X6	Y6	Z6	X7	Y7	Z7	X8	Y8	Z8	X9	Y9	Z9	X10	Y10	Z10	X11	Y11	Z11	X12	Y12	Z12	X13	Y13	Z13	X14	Y14	Z14	X15	Y15	Z15	X16	Y16	Z16	X17	Y17	Z17	X18	Y18	Z18	X19	Y19	Z19	X20	Y20	Z20	X21	Y21	Z21	X22	Y22	Z22	X23	Y23	Z23	X24	Y24	Z24	X25	Y25	Z25	X26	Y26	Z26	X27	Y27	Z27	X28	Y28	Z28	X29	Y29	Z29	X30	Y30	Z30	X31	Y31	Z31	X32	Y32	Z32	X33	Y33	Z33	X34	Y34	Z34	X35	Y35	Z35	X36	Y36	Z36	X37	Y37	Z37	X38	Y38	Z38	X39	Y39	Z39	X40	Y40	Z40	X41	Y41	Z41	X42	Y42	Z42	X43	Y43	Z43	X44	Y44	Z44	X45	Y45	Z45	X46	Y46	Z46	X47	Y47	Z47	X48	Y48	Z48	X49	Y49	Z49	X50	Y50	Z50	X51	Y51	Z51	X52	Y52	Z52	X53	Y53	Z53	
383	3.82	2553.1465	128.39444	-157.6328	2555.4338	131.20094	-194.78146	2706.2698	1452.826	-75.260132	2695.4939	1424.3989	-67.664886	2699.7117	1426.7412	-105.72631	2738.8064	1073.3284	46.92384	2749.3347	1083.8195	-200.58176	2906.7566	1098.9338	0.96529579	2914.1716	1099.7849	-116.66557	2916.1758	1156.304	-63.832283	2924.2422	1131.4197	-75.143272	2924.4954	1126.0605	-35.802792	2881.0759	552.21637	58.979721	2774.123	616.86267	11.237744	2739.9172	697.18207	28.6506	2718.1106	835.8042	51.719555	2854.6309	703.14862	84.846672	2820.8726	846.35419	115.0536	2833.4055	801.72986	119.85875	2840.4502	773.00012	115.5777	2802.5518	777.30835	118.53355	2891.4395	471.06689	62.356678	2838.3638	454.91064	9.221199	2903.7224	211.48048	-10.333526	2975.5835	106.03967	13.595469	2847.9346	401.1702	-20.766352	2847.3018	373.47461	-13.346855	2862.2039	377.36194	-48.730152	3052.396	71.268143	-22.969086	2832.0867	69.19973	-22.296869	2891.3042	119.63775	-16.946167	2868.468	102.51414	-6.6330729	2863.6848	107.98718	-44.439796	2639.2598	565.79907	-221.66982	2581.8711	673.72681	-167.26678	2602.4849	755.05688	-161.48193	2659.5286	870.93976	-164.66412	2688.8066	715.72565	-248.2516	2750.9109	852.07617	-268.76294	2734.2283	801.38202	-276.06836	2713.2634	781.09991	-272.77814	2748.3689	764.78448	-267.89777	2646.0579	500.01382	-224.37616	2587.1177	490.39066	-183.25429	2668.7424	230.66278	-211.71196	2619.1287	242.42673	-169.1693	2669.1848	122.60839	-198.27184	2596.9153	424.27063	-127.78309	2603.3186	396.45013	-120.55092	2582.6521	393.73883	-151.27945	2740.5598	84.659767	-157.38286	2522.0364	96.630219	-168.71536	2578.2288	141.65067	-165.36624
384	3.83	2513.6934	132.4924	-158.93562	2516.2007	134.99629	-196.27296	2693.1406	1450.2854	-76.132568	2682.1775	1422.1521	-68.198196	2686.2324	1424.4048	-106.19888	2726.0183	1070.9706	46.261112	2735.7976	1081.8563	-201.08214	2893.5085	1096.7368	0.13753885	2900.8123	1097.6807	-117.4502	2902.9893	1154.1268	-64.586807	2910.9841	1129.224	-75.915047	2911.1621	1123.8645	-36.674789	2876.4082	551.95605	57.866829	2768.3423	614.66119	10.121508	2732.2173	694.3855	27.705214	2707.7581	832.57806	51.152874	2847.0872	702.50647	84.004379	2810.5522	844.84045	114.44321	2823.8669	800.52081	118.85137	2831.3213	771.94464	114.75563	2793.4387	775.41785	117.65731	2887.9294	470.91235	61.541111	2835.1919	454.23279	8.3699665	2902.2676	211.30476	-11.380866	2975.0315	106.56528	12.292419	2844.9575	400.63782	-21.714886	2844.4175	373.12619	-14.208735	2859.4934	376.81027	-49.852085	3052.0945	71.680412	-23.616724	2831.7004	68.802704	-22.701567	2890.8477	119.64508	-17.771492	2868.0518	102.49258	-7.2719426	2863.3667	107.30212	-45.307495	2624.6189	563.90607	-221.80943	2569.9109	671.50647	-166.9382	2590.0476	752.42926	-161.34003	2646.2476	868.46777	-164.84872	2675.8511	713.52051	-249.22639	2736.9919	850.20428	-269.56714	2720.9099	799.4386	-276.6192	2700.0205	778.98822	-273.84464	2734.8567	762.80078	-267.51782	2628.5166	497.86176	-224.90585	2569.9182	490.97763	-182.97003	2634.7937	227.32591	-212.93448	2586.8804	242.18204	-169.66965	2628.9451	119.43183	-200.21022	2577.3562	424.69046	-128.20702	2581.6204	397.01071	-120.4171	2560.3044	395.55392	-150.59358	2696.7798	75.506866	-158.46941	2480.8965	102.72801	-170.1825	2539.8071	144.01016	-166.70456
385	3.84	2475.7617	137.44922	-160.16963	2478.1936	139.76022	-197.42261	2679.292	1448.1276	-76.414352	2668.7275	1419.6729	-68.718399	2672.5725	1422.0394	-106.57935	2712.5376	1068.5618	46.142101	2722.2725	1079.7677	-201.77156	2880.1753	1094.4569	-0.65965474	2887.47	1095.3444	-118.24387	2889.7417	1151.7789	-65.326279	2897.6741	1126.8463	-76.67952	2897.7727	1121.4587	-37.485561	2871.4077	551.8324	56.496063	2762.2241	612.46417	8.8280621	2724.2866	691.57544	26.681599	2697.2593	829.16199	50.495987	2839.4478	701.69336	83.193153	2799.801	843.14429	113.79604	2813.9331	799.19775	117.98643	2822.0933	771.04688	114.0246	2783.9653	773.51624	117.01067	2884.0874	470.91034	60.443012	2831.8232	453.37576	7.1179743	2900.5627	211.34937	-12.314447	2974.5515	107.48486	11.119209	2841.5881	400.34357	-22.939201	2841.5642	372.66434	-15.253119	2856.1367	376.55334	-50.995907	3051.6936	72.52478	-24.192682	2831.2822	68.384445	-23.096352	2890.3027	119.59309	-18.453526	2867.5901	102.31026	-8.0720987	2862.8096	107.07208	-45.975922	2610.4463	561.62958	-222.15689	2558.3003	668.80841	-166.78064	2577.7703	749.31616	-161.57124	2632.9236	865.58472	-165.291	2663.3149	710.87317	-250.11021	2723.4412	847.80914	-270.36707	2708.218	797.02393	-277.13702	2687.5786	776.37811	-274.06711	2723.1636	760.63489	-268.84482	2611.0044	495.48108	-225.29382	2552.9116	491.41617	-182.74818	2601.5615	225.18674	-214.70024	2555.4648	242.73026	-170.24585	2589.7813	117.19757	-201.68504	2557.8889	425.21021	-127.79263	2560.5569	397.15472	-120.59184	2537.8699	397.46133	-149.90024	2654.5786	68.67305	-160.24667	2440.8945	109.56788	-171.22664	2502.5061	147.43065	-168.15685
386	3.85	2439.167	142.97232	-161.0545	2441.4587	145.1974	-198.43326	2666.021	1445.0671	-77.356178	2655.1201	1416.9846	-69.255623	2658.9063	1419.2783	-107.21597	2699.7656	1065.6738	45.139549	2708.2637	1077.6843	-202.28818	2866.6211	1091.9404	-1.4781688	2874.0557	1092.8988	-119.03323	2876.4797	1149.2234	-66.115746	2884.3066	1124.3096	-77.457756	2884.2825	1118.8462	-38.328457	2865.9377	551.80164	55.574993	2755.3884	610.31543	7.3608947	2715.9304	688.7843	25.53178	2686.0891	825.95441	49.771255	2830.782	700.88159	81.933647	2788.6472	841.46259	112.95031	2803.6616	797.74921	117.16913	2812.3875	769.62579	113.33531	2774.0962	771.48706	115.93835	2879.9221	471.00311	59.406891	2827.8445	452.72415	6.078763	2899.0339	211.23676	-13.225296	2973.8948	108.434	10.187572	2838.1814	399.79974	-23.948975	2838.498	372.17801	-15.943896	2852.7344	376.3909	-51.891407	3051.3113	73.661682	-24.722298	2830.8833	67.888847	-23.288891	2890.062	119.49079	-19.218504	2867.0271	102.50697	-8.7126493	2862.2087	107.43343	-46.500904	2596.553	559.12122	-222.26672	2546.895	665.66565	-166.80121	2565.4558	745.90784	-162.02702	2619.7754	862.20526	-166.13757	2651.3113	707.74518	-251.05692	2710.3628	845.11841	-271.13629	2695.5647	794.16211	-277.67789	2675.4512	773.48407	-275.03931	2711.092	758.08276	-269.68863	2593.9326	493.24963	-225.71571	2536.6838	491.56711	-182.19882	2569.3049	223.87299	-216.07829	2524.9915	243.75148	-171.1252	2551.5518	116.40812	-203.91664	2538.4714	425.70181	-127.93422	2539.5054	397.33243	-120.82671	2517.3333	398.69067	-150.15224	2614.1626	64.300003	-163.24509	2402.6987	117.07451	-171.83295	2465.9238	151.98575	-168.98943
387	3.86	2404.4329	148.70177	-161.94305	2406.2361	150.97963	-199.2841	2652.3564	1442.2446	-77.811943	2641.4644	1414.1388	-69.854332	2645.2383	1416.4607	-107.72218	2685.8984	1063.0889	44.737797	2694.6416	1075.2404	-203.23981	2852.8779	1089.2614	-2.3330002	2860.4485	1090.1947	-119.83907	2863.074	1146.5089	-66.962738	2870.8069	1121.5228	-78.294968	2870.6963	1116.0764	-39.162132	2860.1841	551.81061	54.791561	2748.5129	607.99054	5.8819103	2707.261	686.00555	24.167933	2675.3359	822.45642	48.888744	2821.7253	700.10907	81.041496	2777.1565	839.6618	112.29389	2793.0491	796.25714	116.74084	2802.1892	768.63025	112.35817	2763.8601	769.68585	115.21454	2875.3755	471.15494	58.56506	2823.1982	452.09613	5.011796	2897.0776	211.35982	-13.930914	2973.0837	109.42065	9.5270519	2834.0454	399.39194	-24.557505	2834.7546	371.59692	-17.146734	2849.0879	375.98715	-52.81284	3050.7983	75.140343	-25.166895	2830.3555	67.521042	-23.489365	2889.3198	119.57903	-19.861828	2866.4131	102.46581	-9.1374369	2861.4473	107.15817	-46.914215	2582.8762	556.52081	-222.481	2535.4702	662.17676	-167.06137	2553.187	741.99652	-162.84854	2606.4795	858.63086	-167.11838	2639.7261	704.31659	-252.18948	2697.45	842.00818	-271.97775	2683.7422	791.11444	-278.58325	2663.6113	770.16486	-275.90363	2699.2432	755.23566	-270.98318	2577.1799	491.01233	-226.26407	2520.4412	491.48462	-181.80312	2538.0581	223.27008	-218.12396	2495.7593	245.24893	-172.37752	2514.6099	116.36853	-206.3297	2519.4063	425.86719	-128.10112	2519.0889	397.42825	-121.25407	2496.9966	399.80371	-150.61191	2575.0889	60.553921	-166.06644	2366.4441	125.06804	-172.22655	2431.4653	156.46049	-170.39145
388	3.87	2371.5906	155.15848	-162.65012	2373.0178	157.26361	-200.01036	2638.5952	1439.4133	-78.582321	2627.8254	1411.2777	-70.55883	2631.334	1413.5154	-108.45158	2672.0662	1060.2915	43.921909	2680.8782	1072.6888	-204.27934	2838.9695	1086.5344	-3.2147212	2846.7139	1087.2728	-120.74292	2849.4705	1143.6354	-67.811615	2857.0986	1118.574	-79.201401	2856.9775	1113.145	-40.032562	2853.4055	551.56427	54.019459	2740.8965	605.90991	4.5757675	2698.2297	683.23193	23.041969	2663.7947	819.24542	47.902103	2812.5288	699.08447	80.216904	2765.353	837.75635	111.75623	2781.7461	794.70447	116.39182	2791.5481	767.12653	111.6136	2753.2388	767.54071	114.13018	2870.0806	471.31601	57.770191	2818.1133	451.5787	3.9640744	2894.7827	211.57072	-14.375097	2972.1699	110.65397	8.7092123	2829.4087	398.53354	-25.040773	2830.5142	371.19809	-17.558933	2845.3252	375.17358	-53.41893	3050.094	76.475349	-25.636835	2829.8103	67.14286	-23.654831	2888.3691	119.67615	-20.310528	2865.6145	102.48721	-9.3409281	2860.7073	106.82918	-47.382126	2569.3728	553.58478	-222.68228	2523.7559	658.5473	-167.40529	2540.8206	738.14636	-163.78879	2593.063	855.09503	-168.49924	2628.2014	700.58496	-253.30579	2684.9111	838.69434	-272.84015	2671.8088	787.62207	-279.50732	2651.7031	766.71442	-276.95212	2687.2202	751.97473	-271.66229	2560.8093	488.84238	-226.75052	2504.0601	491.48645	-181.40477	2508.7842	223.29396	-219.96143	2467.5752	247.1274	-174.05351	2478.95	117.31774	-208.57321	2500.72	426.01727	-128.82559	2499.0498	397.52072	-121.87805	2476.5867	401.43817	-150.82117	2537.7241	58.651184	-169.79054	2332.3311	133.10854	-172.35722	2398.7551	161.69284	-171.33299
